<svg width="48" height="48" viewBox="0 0 48 48" fill="none" xmlns="http://www.w3.org/2000/svg">
<rect width="48" height="48" rx="10" fill="black"/>
<path d="M35.5291 21.5665L34.6813 21.8096C34.324 21.9121 34.1994 22.3547 34.4509 22.6285C34.579 22.7679 34.7749 22.8231 34.9569 22.7709L35.8047 22.5278C36.162 22.4253 36.2866 21.9827 36.0352 21.7089C35.9071 21.5695 35.7111 21.5143 35.5291 21.5665Z" stroke="#D3D3D3"/>
<path d="M33.8829 17.8531L33.1518 18.3463C32.8436 18.5542 32.8619 19.0136 33.1856 19.1963C33.3506 19.2894 33.5539 19.2813 33.7109 19.1753L34.4421 18.6822C34.7503 18.4743 34.732 18.0148 34.4083 17.8322C34.2433 17.7391 34.0399 17.7472 33.8829 17.8531Z" stroke="#D3D3D3"/>
<path d="M36.3353 22.5906C36.8022 25.4872 36.1917 28.4544 34.6192 30.9314C33.0468 33.4084 30.6213 35.2235 27.8014 36.0336C24.9815 36.8436 21.9625 36.5925 19.3152 35.3277C16.6678 34.0629 14.5756 31.8721 13.4339 29.1693C12.2923 26.4666 12.1804 23.4392 13.1194 20.6596C14.0583 17.8799 15.9831 15.5406 18.5299 14.0838C21.0766 12.627 24.0688 12.1537 26.9408 12.7533C29.8128 13.353 32.3657 14.984 34.1167 17.3382L32.543 18.5087C31.0782 16.5393 28.9426 15.1748 26.54 14.6732C24.1373 14.1715 21.6342 14.5675 19.5037 15.7862C17.3732 17.0049 15.763 18.9619 14.9775 21.2873C14.192 23.6126 14.2856 26.1452 15.2407 28.4062C16.1957 30.6672 17.946 32.4999 20.1607 33.558C22.3753 34.6161 24.9009 34.8262 27.2599 34.1485C29.6189 33.4708 31.648 31.9524 32.9634 29.8803C34.2789 27.8081 34.7896 25.3258 34.3991 22.9027L36.3353 22.5906Z" fill="#D9D9D9"/>
<g filter="url(#filter0_d_0_1)">
<path d="M31.759 14.1623C34.8095 12.9946 37.2748 12.4118 38.8084 12.4957C40.342 12.5797 40.8667 13.3262 40.3087 14.6303C39.7508 15.9344 38.1382 17.7305 35.6977 19.766C33.2572 21.8016 30.1116 23.9742 26.7032 25.9784C23.2947 27.9827 19.7949 29.7177 16.6957 30.9396C13.5965 32.1614 11.0539 32.8087 9.42538 32.7903C7.79682 32.772 7.16424 32.0889 7.61657 30.8372C8.0689 29.5855 9.5834 27.8281 11.9471 25.8121L13.11 25.5059C10.9744 27.3274 9.60603 28.9153 9.19734 30.0462C8.78866 31.1771 9.3602 31.7943 10.8316 31.8109C12.303 31.8275 14.6003 31.2427 17.4005 30.1387C20.2006 29.0347 23.3628 27.4671 26.4424 25.6562C29.5219 23.8454 32.364 21.8824 34.569 20.0432C36.774 18.2041 38.231 16.5813 38.7352 15.403C39.2393 14.2248 38.7653 13.5503 37.3796 13.4744C35.994 13.3986 33.7665 13.9252 31.0104 14.9802L31.759 14.1623Z" fill="#D9D9D9"/>
</g>
<path d="M17.9503 29.3046C17.5867 28.5248 17.5477 27.6326 17.842 26.8241C18.1363 26.0155 18.7397 25.3571 19.5194 24.9934C20.2992 24.6298 21.1915 24.5909 22 24.8851C22.8085 25.1794 23.467 25.7828 23.8306 26.5626L20.8905 27.9336L17.9503 29.3046Z" fill="#D9D9D9"/>
<path d="M26.7346 24.7191C26.2787 23.9895 26.1312 23.1086 26.3248 22.2702C26.5183 21.4319 27.037 20.7048 27.7666 20.2488C28.4963 19.7929 29.3772 19.6455 30.2155 19.839C31.0539 20.0326 31.781 20.5512 32.2369 21.2809L29.4858 23L26.7346 24.7191Z" fill="#D9D9D9"/>
<path d="M30.3166 24.7888C30.6308 25.3558 30.8324 25.978 30.9097 26.6199C30.987 27.2618 30.9386 27.9108 30.7672 28.5299C30.5958 29.149 30.3048 29.7261 29.9107 30.2281C29.5167 30.7302 29.0273 31.1474 28.4707 31.456C27.914 31.7646 27.3008 31.9585 26.6663 32.0266C26.0317 32.0947 25.3881 32.0357 24.7722 31.853C24.1564 31.6703 23.5803 31.3674 23.0769 30.9617C22.5735 30.556 22.1527 30.0553 21.8384 29.4883L26.0775 27.1386L30.3166 24.7888Z" fill="#D9D9D9"/>
<defs>
<filter id="filter0_d_0_1" x="3.47432" y="12.4878" width="41.0514" height="28.3029" filterUnits="userSpaceOnUse" color-interpolation-filters="sRGB">
<feFlood flood-opacity="0" result="BackgroundImageFix"/>
<feColorMatrix in="SourceAlpha" type="matrix" values="0 0 0 0 0 0 0 0 0 0 0 0 0 0 0 0 0 0 127 0" result="hardAlpha"/>
<feOffset dy="4"/>
<feGaussianBlur stdDeviation="2"/>
<feComposite in2="hardAlpha" operator="out"/>
<feColorMatrix type="matrix" values="0 0 0 0 0 0 0 0 0 0 0 0 0 0 0 0 0 0 0.25 0"/>
<feBlend mode="normal" in2="BackgroundImageFix" result="effect1_dropShadow_0_1"/>
<feBlend mode="normal" in="SourceGraphic" in2="effect1_dropShadow_0_1" result="shape"/>
</filter>
</defs>
</svg>
