<svg width="51" height="48" viewBox="0 0 51 48" fill="none" xmlns="http://www.w3.org/2000/svg">
<rect x="1.18301" width="48" height="48" rx="10" fill="black"/>
<path d="M39.9613 20.0174L38.8745 20.329C38.4165 20.4604 38.2569 21.0278 38.5792 21.3787C38.7434 21.5575 38.9945 21.6281 39.2278 21.5612L40.3146 21.2496C40.7726 21.1183 40.9322 20.5509 40.61 20.2C40.4457 20.0212 40.1946 19.9505 39.9613 20.0174Z" fill="white" stroke="white"/>
<path d="M37.8512 15.2575L36.9139 15.8897C36.5189 16.1561 36.5424 16.7451 36.9574 16.9792C37.1688 17.0985 37.4295 17.0881 37.6307 16.9524L38.568 16.3202C38.963 16.0538 38.9395 15.4648 38.5245 15.2307C38.3131 15.1114 38.0524 15.1218 37.8512 15.2575Z" fill="white" stroke="white"/>
<path d="M40.9947 21.3301C41.5932 25.043 40.8106 28.8465 38.795 32.0216C36.7794 35.1966 33.6704 37.5232 30.0557 38.5616C26.4411 39.6 22.5713 39.2781 19.1779 37.6568C15.7844 36.0356 13.1026 33.2273 11.6392 29.7629C10.1758 26.2984 10.0324 22.4179 11.236 18.8549C12.4395 15.2919 14.9068 12.2932 18.1712 10.4259C21.4357 8.55851 25.2712 7.9518 28.9526 8.72044C32.634 9.48909 35.9063 11.5798 38.1509 14.5974L36.1337 16.0978C34.256 13.5734 31.5185 11.8244 28.4388 11.1814C25.3591 10.5384 22.1504 11.0459 19.4195 12.6081C16.6886 14.1703 14.6246 16.6788 13.6178 19.6595C12.6109 22.6402 12.7309 25.8864 13.9551 28.7846C15.1793 31.6828 17.4228 34.0321 20.2616 35.3884C23.1004 36.7447 26.3378 37.0139 29.3616 36.1453C32.3855 35.2767 34.9863 33.3303 36.6725 30.6742C38.3587 28.018 39.0134 24.8362 38.5127 21.7301L40.9947 21.3301Z" fill="white"/>
<g filter="url(#filter0_d_0_1)">
<path d="M35.1287 10.5265C39.0388 9.02975 42.199 8.28268 44.1648 8.39028C46.1306 8.49789 46.8031 9.45477 46.0879 11.1264C45.3727 12.798 43.3056 15.1003 40.1774 17.7095C37.0491 20.3187 33.017 23.1036 28.648 25.6727C24.279 28.2418 19.7928 30.4658 15.8202 32.032C11.8476 33.5982 8.58843 34.4279 6.50091 34.4044C4.4134 34.3808 3.60254 33.5053 4.18235 31.9008C4.76215 30.2963 6.70347 28.0436 9.73333 25.4594L11.224 25.067C8.48648 27.4019 6.73248 29.4372 6.20861 30.8869C5.68475 32.3365 6.41737 33.1276 8.30347 33.1489C10.1896 33.1702 13.1343 32.4205 16.7236 31.0054C20.3129 29.5903 24.3662 27.5809 28.3137 25.2597C32.2611 22.9385 35.9042 20.4223 38.7306 18.0648C41.557 15.7074 43.4247 13.6272 44.0709 12.1169C44.7171 10.6066 44.1094 9.74204 42.3333 9.64481C40.5572 9.54759 37.702 10.2226 34.169 11.5749L35.1287 10.5265Z" fill="white"/>
</g>
<path d="M17.4284 29.9363C16.9623 28.9368 16.9123 27.793 17.2895 26.7566C17.6667 25.7203 18.4402 24.8762 19.4397 24.4101C20.4393 23.944 21.583 23.8941 22.6194 24.2713C23.6557 24.6485 24.4998 25.4219 24.9659 26.4215L21.1971 28.1789L17.4284 29.9363Z" fill="white"/>
<path d="M28.6883 24.0585C28.1038 23.1232 27.9149 21.9941 28.163 20.9195C28.4111 19.8449 29.0759 18.9128 30.0112 18.3284C30.9464 17.744 32.0756 17.555 33.1502 17.8031C34.2248 18.0512 35.1568 18.716 35.7413 19.6513L32.2148 21.8549L28.6883 24.0585Z" fill="white"/>
<path d="M33.2797 24.1478C33.6826 24.8746 33.9409 25.6721 34.04 26.4949C34.1392 27.3177 34.0771 28.1497 33.8574 28.9433C33.6376 29.7369 33.2646 30.4765 32.7595 31.1201C32.2544 31.7636 31.6272 32.2984 30.9136 32.694C30.2 33.0895 29.4141 33.338 28.6007 33.4254C27.7873 33.5127 26.9623 33.4371 26.1729 33.2029C25.3834 32.9687 24.645 32.5804 23.9997 32.0604C23.3545 31.5403 22.815 30.8986 22.4122 30.1718L27.846 27.1598L33.2797 24.1478Z" fill="white"/>
<defs>
<filter id="filter0_d_0_1" x="0" y="8.3801" width="50.366" height="34.0247" filterUnits="userSpaceOnUse" color-interpolation-filters="sRGB">
<feFlood flood-opacity="0" result="BackgroundImageFix"/>
<feColorMatrix in="SourceAlpha" type="matrix" values="0 0 0 0 0 0 0 0 0 0 0 0 0 0 0 0 0 0 127 0" result="hardAlpha"/>
<feOffset dy="4"/>
<feGaussianBlur stdDeviation="2"/>
<feComposite in2="hardAlpha" operator="out"/>
<feColorMatrix type="matrix" values="0 0 0 0 0 0 0 0 0 0 0 0 0 0 0 0 0 0 0.25 0"/>
<feBlend mode="normal" in2="BackgroundImageFix" result="effect1_dropShadow_0_1"/>
<feBlend mode="normal" in="SourceGraphic" in2="effect1_dropShadow_0_1" result="shape"/>
</filter>
</defs>
</svg>
